<?xml version="1.0" encoding="UTF-8" standalone="no"?>
<!-- Created with Inkscape (http://www.inkscape.org/) -->

<svg
   width="1570.6754"
   height="204.35234"
   viewBox="0 0 415.57453 54.068225"
   version="1.1"
   id="svg5"
   inkscape:version="1.1.1 (3bf5ae0d25, 2021-09-20)"
   sodipodi:docname="resumepop.2.svg"
   xmlns:inkscape="http://www.inkscape.org/namespaces/inkscape"
   xmlns:sodipodi="http://sodipodi.sourceforge.net/DTD/sodipodi-0.dtd"
   xmlns="http://www.w3.org/2000/svg"
   xmlns:svg="http://www.w3.org/2000/svg">
  <sodipodi:namedview
     id="namedview7"
     pagecolor="#ffffff"
     bordercolor="#666666"
     borderopacity="1.0"
     inkscape:pageshadow="2"
     inkscape:pageopacity="0.0"
     inkscape:pagecheckerboard="true"
     inkscape:document-units="mm"
     showgrid="false"
     units="px"
     showguides="true"
     inkscape:guide-bbox="true"
     fit-margin-top="0"
     fit-margin-left="0"
     fit-margin-right="0"
     fit-margin-bottom="0"
     inkscape:zoom="0.3750491"
     inkscape:cx="278.63018"
     inkscape:cy="235.9691"
     inkscape:window-width="1920"
     inkscape:window-height="1027"
     inkscape:window-x="1912"
     inkscape:window-y="-8"
     inkscape:window-maximized="1"
     inkscape:current-layer="layer2">
    <sodipodi:guide
       position="293.38121,1.0267338"
       orientation="0,-1"
       id="guide17233" />
    <sodipodi:guide
       position="296.26574,53.424154"
       orientation="0,-1"
       id="guide17235" />
  </sodipodi:namedview>
  <defs
     id="defs2" />
  <g
     inkscape:groupmode="layer"
     id="layer2"
     inkscape:label="Text Layer"
     style="display:inline"
     transform="translate(-56.041075,-49.08135)">
    <g
       aria-label="RESUMEP  P"
       id="text"
       style="font-weight:800;font-size:73.3777px;font-family:'Open Sans';-inkscape-font-specification:'Open Sans Ultra-Bold';letter-spacing:-0.661458px;stroke-width:0.264583"
       inkscape:label="#text">
      <path
         d="m 73.203145,49.833758 q 7.129962,0 11.859384,1.755619 4.729422,1.719789 7.094133,5.159369 2.40054,3.43958 2.40054,8.56312 0,3.188778 -1.074868,5.804291 -1.074869,2.615514 -3.08129,4.693593 -1.970593,2.042251 -4.729423,3.582896 L 100.93476,102.21569 H 84.883384 L 73.776408,83.154686 H 70.193513 V 102.21569 H 56.041075 V 49.833758 Z m -0.214974,10.712857 h -2.794658 v 11.966872 h 2.651342 q 3.260435,0 5.338515,-1.433159 2.078079,-1.433158 2.078079,-5.12354 0,-2.543856 -1.71979,-3.977014 -1.71979,-1.433159 -5.553488,-1.433159 z"
         style="fill:#333333"
         id="path67" />
      <path
         d="M 136.13808,102.21569 H 105.03855 V 49.833758 h 31.09953 v 11.357779 h -16.94709 v 8.240659 h 15.69308 v 11.357779 h -15.69308 v 9.888792 h 16.94709 z"
         style="fill:#333333"
         id="path69" />
      <path
         d="m 178.90132,86.307634 q 0,4.263646 -2.14974,8.097344 -2.14973,3.79787 -6.70001,6.162582 -4.51445,2.36471 -11.68024,2.36471 -3.5829,0 -6.3059,-0.32246 -2.68717,-0.32246 -5.01605,-1.03904 -2.32888,-0.75241 -4.83691,-1.934764 V 87.024213 q 4.26365,2.149738 8.59895,3.296264 4.3353,1.110698 7.84654,1.110698 2.11391,0 3.43958,-0.501605 1.3615,-0.501606 2.00642,-1.361501 0.64492,-0.895724 0.64492,-2.04225 0,-1.3615 -0.96738,-2.293053 -0.93155,-0.967382 -3.00963,-2.006422 -2.07808,-1.039039 -5.48183,-2.579685 -2.90215,-1.3615 -5.26686,-2.794658 -2.32888,-1.433158 -4.01284,-3.260435 -1.64813,-1.863106 -2.54386,-4.335304 -0.89572,-2.472198 -0.89572,-5.840119 0,-5.051883 2.4722,-8.455634 2.50803,-3.43958 6.95082,-5.159369 4.47862,-1.71979 10.31874,-1.71979 5.12354,0 9.20804,1.146526 4.12033,1.146527 7.38076,2.615514 l -4.3353,10.927831 q -3.36792,-1.540645 -6.62836,-2.436369 -3.26043,-0.931552 -6.05509,-0.931552 -1.82728,0 -3.00963,0.465776 -1.14653,0.429947 -1.71979,1.182356 -0.53744,0.752408 -0.53744,1.719789 0,1.218185 0.93155,2.185567 0.96739,0.967381 3.18878,2.113908 2.25723,1.110698 6.12675,2.902145 3.8337,1.71979 6.52087,3.726212 2.68717,1.970592 4.0845,4.765251 1.43316,2.758829 1.43316,6.84333 z"
         style="fill:#333333"
         id="path71" />
      <path
         d="m 230.87259,49.833758 v 31.529481 q 0,6.592527 -2.50802,11.465265 -2.50803,4.836909 -7.52408,7.488256 -5.01606,2.61551 -12.57597,2.61551 -10.82034,0 -16.51715,-5.553488 -5.6968,-5.553488 -5.6968,-15.693083 V 49.833758 h 14.2241 v 30.741244 q 0,5.553488 2.07808,8.061514 2.07808,2.508027 6.12675,2.508027 2.90214,0 4.72942,-1.074868 1.82728,-1.110698 2.65134,-3.475409 0.8599,-2.364711 0.8599,-6.090922 V 49.833758 Z"
         style="fill:#333333"
         id="path73" />
      <path
         d="M 264.03368,102.21569 253.32082,64.487801 h -0.32246 q 0.14331,1.468987 0.28663,3.977014 0.17914,2.508026 0.32246,5.410172 0.14332,2.902145 0.14332,5.589317 V 102.21569 H 241.21063 V 49.833758 h 18.84603 l 10.92783,37.190455 h 0.28663 l 10.71286,-37.190455 h 18.88186 V 102.21569 H 287.85993 V 79.24933 q 0,-2.472198 0.0717,-5.302685 0.10749,-2.866317 0.21497,-5.374344 0.14332,-2.543855 0.25081,-4.012843 h -0.32247 L 277.5054,102.21569 Z"
         style="fill:#333333"
         id="path75" />
      <path
         d="M 342.59004,102.21569 H 311.49051 V 49.833758 h 31.09953 v 11.357779 h -16.9471 v 8.240659 h 15.69309 v 11.357779 h -15.69309 v 9.888792 h 16.9471 z"
         style="fill:#333333"
         id="path77" />
      <path
         d="m 369.23025,49.833758 q 9.96045,0 14.90485,4.335303 4.98022,4.335304 4.98022,12.325161 0,3.582896 -1.03904,6.879159 -1.00321,3.296264 -3.33209,5.875949 -2.29306,2.579685 -6.12675,4.084501 -3.79787,1.504816 -9.38719,1.504816 h -3.97701 V 102.21569 H 351.1008 V 49.833758 Z m -0.32246,11.429437 h -3.65455 v 12.038529 h 2.79465 q 1.82728,0 3.40375,-0.609093 1.57648,-0.644921 2.50803,-2.04225 0.96738,-1.433158 0.96738,-3.797869 0,-2.472198 -1.46898,-4.012843 -1.46899,-1.576474 -4.55028,-1.576474 z"
         style="fill:#333333"
         id="path79" />
      <path
         d="m 451.73055,49.833758 q 9.96045,0 14.90485,4.335303 4.98023,4.335304 4.98023,12.325161 0,3.582896 -1.03904,6.879159 -1.00322,3.296264 -3.3321,5.875949 -2.29305,2.579685 -6.12675,4.084501 -3.79787,1.504816 -9.38719,1.504816 h -3.97701 V 102.21569 H 433.6011 V 49.833758 Z m -0.32246,11.429437 h -3.65455 v 12.038529 h 2.79466 q 1.82728,0 3.40375,-0.609093 1.57647,-0.644921 2.50803,-2.04225 0.96738,-1.433158 0.96738,-3.797869 0,-2.472198 -1.46899,-4.012843 -1.46899,-1.576474 -4.55028,-1.576474 z"
         style="fill:#333333"
         id="path81" />
    </g>
  </g>
  <g
     inkscape:label="Layer 1"
     inkscape:groupmode="layer"
     id="layer1"
     style="display:inline"
     transform="translate(-56.041075,-49.08135)">
    <g
       id="star"
       transform="matrix(0.00877776,0,0,-0.00938473,383.42439,103.15344)"
       style="display:inline"
       inkscape:label="#star">
      <path
         d="M 2347.72,4958.9 3771.45,5693.08 3272.99,3778 1857.32,3164.36 2347.72,4958.9"
         style="fill:#333333;fill-opacity:1;fill-rule:nonzero;stroke:none"
         id="path14" />
      <path
         d="M 2347.72,4958.9 3771.45,5693.08 3272.99,3778 1857.32,3164.36 Z"
         style="fill:none;stroke:#333333;stroke-width:30;stroke-linecap:round;stroke-linejoin:round;stroke-miterlimit:4;stroke-dasharray:none;stroke-opacity:1"
         id="path16" />
      <path
         d="M 2465.88,1242.01 3929.86,1711.33 5463.54,385.148 3916.96,15 2465.88,1242.01"
         style="fill:#333333;fill-opacity:1;fill-rule:nonzero;stroke:none"
         id="path18" />
      <path
         d="M 2465.88,1242.01 3929.86,1711.33 5463.54,385.148 3916.96,15 Z"
         style="fill:none;stroke:#333333;stroke-width:30;stroke-linecap:round;stroke-linejoin:round;stroke-miterlimit:4;stroke-dasharray:none;stroke-opacity:1"
         id="path20" />
      <path
         d="M 15,3315.03 1331.15,3959.56 2954.92,2554.88 1545.2,2020.79 15,3315.03"
         style="fill:#333333;fill-opacity:1;fill-rule:nonzero;stroke:none"
         id="path22" />
      <path
         d="M 15,3315.03 1331.15,3959.56 2954.92,2554.88 1545.2,2020.79 Z"
         style="fill:none;stroke:#333333;stroke-width:30;stroke-linecap:round;stroke-linejoin:round;stroke-miterlimit:4;stroke-dasharray:none;stroke-opacity:1"
         id="path24" />
      <path
         d="M 1545.2,2020.79 2954.92,2554.88 2422.67,508.691 1024.07,112.402 1545.2,2020.79"
         style="fill:#1a1a1a;fill-opacity:1;fill-rule:nonzero;stroke:none"
         id="path26" />
      <path
         d="M 1545.2,2020.79 2954.92,2554.88 2422.67,508.691 1024.07,112.402 Z"
         style="fill:#333333;stroke:#333333;stroke-width:30;stroke-linecap:round;stroke-linejoin:round;stroke-miterlimit:4;stroke-dasharray:none;stroke-opacity:1"
         id="path28" />
      <path
         d="M 1331.15,3959.56 3272.99,3778 3771.45,5693.08 4415.76,3671.09 6179.59,3506.28 4815.18,2417.9 5463.54,385.148 3929.86,1711.33 2422.67,508.691 2954.92,2554.88 1331.15,3959.56"
         style="fill:#ffffff;fill-opacity:1;fill-rule:nonzero;stroke:none"
         id="path30" />
      <path
         d="M 1331.15,3959.56 3272.99,3778 3771.45,5693.08 4415.76,3671.09 6179.59,3506.28 4815.18,2417.9 5463.54,385.148 3929.86,1711.33 2422.67,508.691 2954.92,2554.88 Z"
         style="fill:none;stroke:#1a1a1a;stroke-width:30;stroke-linecap:round;stroke-linejoin:round;stroke-miterlimit:4;stroke-dasharray:none;stroke-opacity:1"
         id="path32" />
    </g>
  </g>
</svg>
